<mxfile host="65bd71144e">
    <diagram id="LvuXZrQ7Tg6OYWz3CXxq" name="Page-1">
        <mxGraphModel dx="856" dy="496" grid="1" gridSize="10" guides="1" tooltips="1" connect="1" arrows="1" fold="1" page="1" pageScale="1" pageWidth="1654" pageHeight="2336" math="0" shadow="0">
            <root>
                <mxCell id="0"/>
                <mxCell id="1" parent="0"/>
                <mxCell id="23" style="edgeStyle=none;html=1;exitX=0.5;exitY=0.5;exitDx=0;exitDy=30;exitPerimeter=0;entryX=0.5;entryY=0;entryDx=0;entryDy=0;fontSize=14;endArrow=classic;endFill=1;" parent="1" source="2" target="14" edge="1">
                    <mxGeometry relative="1" as="geometry"/>
                </mxCell>
                <mxCell id="2" value="Начало" style="html=1;dashed=0;whitespace=wrap;shape=mxgraph.dfd.start;fontSize=14;" parent="1" vertex="1">
                    <mxGeometry x="380" y="80" width="200" height="60" as="geometry"/>
                </mxCell>
                <mxCell id="7" style="edgeStyle=none;html=1;entryX=1;entryY=0.5;entryDx=0;entryDy=0;entryPerimeter=0;fontSize=14;endArrow=none;endFill=0;dashed=1;" parent="1" source="6" target="2" edge="1">
                    <mxGeometry relative="1" as="geometry"/>
                </mxCell>
                <mxCell id="6" value="&amp;nbsp; &amp;nbsp; Функция загрузки модуля ядра&lt;br&gt;&amp;nbsp; &amp;nbsp; PROTECTED_FILE - путь к защищаемому файлу&lt;br&gt;&amp;nbsp; &amp;nbsp; new_file_operations - функция создания нового объекта&amp;nbsp;&lt;br&gt;типа struct file_operations&lt;br&gt;&amp;nbsp; &amp;nbsp; new_inode_operations - функция создания нового объекта&lt;br&gt;типа struct inode_operations" style="strokeWidth=1;html=1;shape=mxgraph.flowchart.annotation_1;align=left;pointerEvents=1;fontSize=14;" parent="1" vertex="1">
                    <mxGeometry x="640" y="55" width="20" height="110" as="geometry"/>
                </mxCell>
                <mxCell id="26" style="edgeStyle=none;html=1;exitX=0.5;exitY=1;exitDx=0;exitDy=0;entryX=0.5;entryY=0;entryDx=0;entryDy=0;fontSize=14;endArrow=classic;endFill=1;" parent="1" source="8" target="9" edge="1">
                    <mxGeometry relative="1" as="geometry"/>
                </mxCell>
                <mxCell id="8" value="Определить dentry для PROTECTED_FILE" style="whiteSpace=wrap;html=1;fontSize=14;strokeWidth=1;" parent="1" vertex="1">
                    <mxGeometry x="380" y="380" width="200" height="60" as="geometry"/>
                </mxCell>
                <mxCell id="27" style="edgeStyle=none;html=1;exitX=0.5;exitY=1;exitDx=0;exitDy=0;entryX=0.5;entryY=0;entryDx=0;entryDy=0;fontSize=14;endArrow=classic;endFill=1;" parent="1" source="9" target="15" edge="1">
                    <mxGeometry relative="1" as="geometry"/>
                </mxCell>
                <mxCell id="9" value="Сохранить значение поля d_flags найденного dentry" style="whiteSpace=wrap;html=1;fontSize=14;strokeWidth=1;" parent="1" vertex="1">
                    <mxGeometry x="380" y="480" width="200" height="60" as="geometry"/>
                </mxCell>
                <mxCell id="25" style="edgeStyle=none;html=1;exitX=0.5;exitY=1;exitDx=0;exitDy=0;entryX=0.5;entryY=0;entryDx=0;entryDy=0;fontSize=14;endArrow=classic;endFill=1;" parent="1" source="12" target="8" edge="1">
                    <mxGeometry relative="1" as="geometry"/>
                </mxCell>
                <mxCell id="12" value="Сбросить 16 бит регистра CR0" style="whiteSpace=wrap;html=1;fontSize=14;strokeWidth=1;" parent="1" vertex="1">
                    <mxGeometry x="380" y="280" width="200" height="60" as="geometry"/>
                </mxCell>
                <mxCell id="24" style="edgeStyle=none;html=1;exitX=0.5;exitY=1;exitDx=0;exitDy=0;entryX=0.5;entryY=0;entryDx=0;entryDy=0;fontSize=14;endArrow=classic;endFill=1;" parent="1" source="14" target="12" edge="1">
                    <mxGeometry relative="1" as="geometry"/>
                </mxCell>
                <mxCell id="14" value="Сохранить значение 16 бита регистра CR0" style="whiteSpace=wrap;html=1;fontSize=14;strokeWidth=1;" parent="1" vertex="1">
                    <mxGeometry x="380" y="180" width="200" height="60" as="geometry"/>
                </mxCell>
                <mxCell id="28" style="edgeStyle=none;html=1;exitX=0.5;exitY=1;exitDx=0;exitDy=0;entryX=0.5;entryY=0;entryDx=0;entryDy=0;fontSize=14;endArrow=classic;endFill=1;" parent="1" source="15" target="16" edge="1">
                    <mxGeometry relative="1" as="geometry"/>
                </mxCell>
                <mxCell id="15" value="Установить флаг FS_IMMUTABLE_FL в поле d_flags" style="whiteSpace=wrap;html=1;fontSize=14;strokeWidth=1;" parent="1" vertex="1">
                    <mxGeometry x="380" y="580" width="200" height="60" as="geometry"/>
                </mxCell>
                <mxCell id="29" style="edgeStyle=none;html=1;exitX=0.5;exitY=1;exitDx=0;exitDy=0;entryX=0.5;entryY=0;entryDx=0;entryDy=0;fontSize=14;endArrow=classic;endFill=1;" parent="1" source="16" target="17" edge="1">
                    <mxGeometry relative="1" as="geometry"/>
                </mxCell>
                <mxCell id="16" value="Сохранить значения полей i_op и i_fop для inode найденного dentry" style="whiteSpace=wrap;html=1;fontSize=14;strokeWidth=1;" parent="1" vertex="1">
                    <mxGeometry x="380" y="680" width="200" height="60" as="geometry"/>
                </mxCell>
                <mxCell id="30" style="edgeStyle=none;html=1;exitX=0.5;exitY=1;exitDx=0;exitDy=0;entryX=0.5;entryY=0;entryDx=0;entryDy=0;fontSize=14;endArrow=classic;endFill=1;" parent="1" source="17" target="18" edge="1">
                    <mxGeometry relative="1" as="geometry"/>
                </mxCell>
                <mxCell id="17" value="new_fop = new_file_operations()" style="shape=process;whiteSpace=wrap;html=1;backgroundOutline=1;fontSize=14;strokeWidth=1;" parent="1" vertex="1">
                    <mxGeometry x="380" y="780" width="200" height="60" as="geometry"/>
                </mxCell>
                <mxCell id="42" style="edgeStyle=none;rounded=0;html=1;exitX=0.5;exitY=1;exitDx=0;exitDy=0;entryX=0.5;entryY=0;entryDx=0;entryDy=0;fontSize=14;endArrow=classic;endFill=1;" parent="1" source="18" target="34" edge="1">
                    <mxGeometry relative="1" as="geometry"/>
                </mxCell>
                <mxCell id="18" value="new_iop = new_inode_operations()" style="shape=process;whiteSpace=wrap;html=1;backgroundOutline=1;fontSize=14;strokeWidth=1;" parent="1" vertex="1">
                    <mxGeometry x="380" y="880" width="200" height="60" as="geometry"/>
                </mxCell>
                <mxCell id="20" value="Заменить значения полей i_op и i_fop для inode на new_iop и new_fop" style="whiteSpace=wrap;html=1;fontSize=14;strokeWidth=1;" parent="1" vertex="1">
                    <mxGeometry x="540" y="1060" width="200" height="60" as="geometry"/>
                </mxCell>
                <mxCell id="33" style="edgeStyle=none;html=1;entryX=0.5;entryY=0;entryDx=0;entryDy=0;fontSize=14;endArrow=classic;endFill=1;rounded=0;exitX=0.5;exitY=1;exitDx=0;exitDy=0;" parent="1" source="20" target="43" edge="1">
                    <mxGeometry relative="1" as="geometry">
                        <Array as="points">
                            <mxPoint x="640" y="1250"/>
                            <mxPoint x="480" y="1250"/>
                        </Array>
                        <mxPoint x="610" y="1170" as="sourcePoint"/>
                        <mxPoint x="480" y="1350" as="targetPoint"/>
                    </mxGeometry>
                </mxCell>
                <mxCell id="35" style="edgeStyle=none;html=1;exitX=1;exitY=0.5;exitDx=0;exitDy=0;entryX=0.5;entryY=0;entryDx=0;entryDy=0;fontSize=14;endArrow=classic;endFill=1;rounded=0;" parent="1" source="34" target="20" edge="1">
                    <mxGeometry relative="1" as="geometry">
                        <Array as="points">
                            <mxPoint x="640" y="1020"/>
                        </Array>
                    </mxGeometry>
                </mxCell>
                <mxCell id="36" value="Нет" style="edgeLabel;html=1;align=center;verticalAlign=middle;resizable=0;points=[];fontSize=14;" parent="35" vertex="1" connectable="0">
                    <mxGeometry x="-0.1158" relative="1" as="geometry">
                        <mxPoint x="-24" y="-10" as="offset"/>
                    </mxGeometry>
                </mxCell>
                <mxCell id="39" style="edgeStyle=none;rounded=0;html=1;exitX=0;exitY=0.5;exitDx=0;exitDy=0;entryX=0.5;entryY=0;entryDx=0;entryDy=0;fontSize=14;endArrow=classic;endFill=1;" parent="1" source="34" target="37" edge="1">
                    <mxGeometry relative="1" as="geometry">
                        <Array as="points">
                            <mxPoint x="290" y="1020"/>
                        </Array>
                    </mxGeometry>
                </mxCell>
                <mxCell id="34" value="new_fop == NULL или&lt;br&gt;new_iop == NULL" style="rhombus;whiteSpace=wrap;html=1;fontSize=14;strokeWidth=1;" parent="1" vertex="1">
                    <mxGeometry x="380" y="980" width="200" height="80" as="geometry"/>
                </mxCell>
                <mxCell id="40" style="edgeStyle=none;rounded=0;html=1;exitX=0.5;exitY=1;exitDx=0;exitDy=0;entryX=0.5;entryY=0;entryDx=0;entryDy=0;fontSize=14;endArrow=classic;endFill=1;" parent="1" source="37" target="38" edge="1">
                    <mxGeometry relative="1" as="geometry"/>
                </mxCell>
                <mxCell id="37" value="Освободить new_fop" style="whiteSpace=wrap;html=1;fontSize=14;strokeWidth=1;" parent="1" vertex="1">
                    <mxGeometry x="190" y="1060" width="200" height="60" as="geometry"/>
                </mxCell>
                <mxCell id="41" style="edgeStyle=none;rounded=0;html=1;exitX=0.5;exitY=1;exitDx=0;exitDy=0;entryX=0.5;entryY=0;entryDx=0;entryDy=0;fontSize=14;endArrow=classic;endFill=1;" parent="1" source="38" target="43" edge="1">
                    <mxGeometry relative="1" as="geometry">
                        <Array as="points">
                            <mxPoint x="290" y="1250"/>
                            <mxPoint x="480" y="1250"/>
                        </Array>
                        <mxPoint x="480" y="1350" as="targetPoint"/>
                    </mxGeometry>
                </mxCell>
                <mxCell id="38" value="Освободить new_iop" style="whiteSpace=wrap;html=1;fontSize=14;strokeWidth=1;" parent="1" vertex="1">
                    <mxGeometry x="190" y="1160" width="200" height="60" as="geometry"/>
                </mxCell>
                <mxCell id="45" style="edgeStyle=none;html=1;exitX=0.5;exitY=1;exitDx=0;exitDy=0;entryX=0.5;entryY=0.5;entryDx=0;entryDy=-30;entryPerimeter=0;" edge="1" parent="1" source="43" target="44">
                    <mxGeometry relative="1" as="geometry"/>
                </mxCell>
                <mxCell id="43" value="Установить 16 бит регистра CR0 в исходное значение" style="whiteSpace=wrap;html=1;fontSize=14;strokeWidth=1;" vertex="1" parent="1">
                    <mxGeometry x="380" y="1290" width="200" height="60" as="geometry"/>
                </mxCell>
                <mxCell id="44" value="Конец" style="html=1;dashed=0;whitespace=wrap;shape=mxgraph.dfd.start;fontSize=14;" vertex="1" parent="1">
                    <mxGeometry x="380" y="1390" width="200" height="60" as="geometry"/>
                </mxCell>
            </root>
        </mxGraphModel>
    </diagram>
</mxfile>